<svg width="25" height="25" viewBox="0 0 25 25" fill="none" xmlns="http://www.w3.org/2000/svg">
<path d="M17.7086 2.08344H7.29198C4.4155 2.08344 2.08365 4.41529 2.08365 7.29177V17.7084C2.08365 20.5849 4.4155 22.9168 7.29198 22.9168H17.7086C20.5851 22.9168 22.917 20.5849 22.917 17.7084V7.29177C22.917 4.41529 20.5851 2.08344 17.7086 2.08344Z" stroke="white" stroke-linecap="round" stroke-linejoin="round"/>
<path d="M16.6668 11.8439C16.7954 12.7108 16.6473 13.5962 16.2437 14.3741C15.84 15.152 15.2014 15.7829 14.4185 16.1769C13.6357 16.5709 12.7486 16.708 11.8833 16.5688C11.018 16.4296 10.2187 16.0211 9.59896 15.4013C8.97925 14.7816 8.57073 13.9823 8.43149 13.117C8.29226 12.2517 8.42941 11.3646 8.82343 10.5818C9.21745 9.79894 9.84828 9.16028 10.6262 8.75663C11.4041 8.35299 12.2895 8.20491 13.1564 8.33346C14.0407 8.46459 14.8594 8.87666 15.4915 9.50878C16.1236 10.1409 16.5357 10.9596 16.6668 11.8439Z" stroke="white" stroke-linecap="round" stroke-linejoin="round"/>
<path d="M18.2289 6.77094H18.2398" stroke="white" stroke-linecap="round" stroke-linejoin="round"/>
</svg>
