<svg width="105" height="107" viewBox="0 0 105 107" fill="none" xmlns="http://www.w3.org/2000/svg">
<g clip-path="url(#clip0_2_208)">
<path d="M70.9766 55.1673C72.4282 53.6851 72.4282 53.9589 70.9766 52.4767L61.5984 47.7769C59.0041 46.4768 57.0044 44.2003 56.0197 41.426L53.108 33.2225C51.6564 31.7403 52.8304 31.7403 51.3788 33.2225L49.4317 40.6281C48.5778 43.8759 46.3635 46.5732 43.3808 47.9988L32.6044 53.1494C31.1528 54.6316 31.1528 53.2647 32.6044 54.7469L41.2467 56.9061C45.4251 57.95 48.6447 61.3517 49.5239 65.6512L51.2141 73.9171C52.6657 75.3993 51.9035 75.3993 53.355 73.9171L55.0275 65.7381C55.9158 61.3938 59.1921 57.9704 63.4251 56.9635L70.9766 55.1673Z" fill="black"/>
<path d="M23.1167 43.1391C17.9586 38.8174 10.411 38.7283 5.40614 43.2316C2.64433 45.717 0.826172 49.3593 0.826172 53.6441C0.826172 57.9288 2.64268 61.5728 5.40614 64.0582C10.411 68.5615 17.9586 68.4707 23.1167 64.1507L35.656 53.6457L23.1167 43.1408V43.1391Z" fill="black" stroke="black" stroke-width="1.02593" stroke-miterlimit="10"/>
<path d="M33.5811 53.623H47.7129H33.5811Z" fill="black"/>
<path d="M33.5811 53.623H47.7129" stroke="black" stroke-width="2.05186" stroke-miterlimit="10"/>
<path d="M62.636 23.5998C66.8685 18.3331 66.9558 10.6263 62.5455 5.51594C60.1114 2.6959 56.5442 0.839417 52.348 0.839417C48.1518 0.839417 44.5846 2.69422 42.1489 5.51594C37.7385 10.6263 37.8275 18.3331 42.0583 23.5998L52.3464 36.4035L62.6344 23.5998H62.636Z" fill="black" stroke="black" stroke-width="1.02593" stroke-miterlimit="10"/>
<path d="M52.3467 34.2719V48.7017V34.2719Z" fill="black"/>
<path d="M52.3467 34.2719V48.7017" stroke="black" stroke-width="2.05186" stroke-miterlimit="10"/>
<path d="M81.8855 64.1532C87.0435 68.4749 94.5912 68.564 99.5961 64.0607C102.358 61.5753 104.176 57.933 104.176 53.6483C104.176 49.3636 102.36 45.7195 99.5961 43.2341C94.5912 38.7308 87.0435 38.8216 81.8855 43.1417L69.3462 53.6466L81.8855 64.1515V64.1532Z" fill="black" stroke="black" stroke-width="1.02593" stroke-miterlimit="10"/>
<path d="M71.4307 53.6262H57.2988H71.4307Z" fill="black"/>
<path d="M71.4307 53.6262H57.2988" stroke="black" stroke-width="2.05186" stroke-miterlimit="10"/>
<path d="M42.0376 83.3551C37.8051 88.6219 37.7178 96.3287 42.1281 101.439C44.5622 104.259 48.1294 106.116 52.3256 106.116C56.5219 106.116 60.089 104.261 62.5247 101.439C66.9351 96.3287 66.8461 88.6219 62.6153 83.3551L52.3273 70.5515L42.0392 83.3551H42.0376Z" fill="black" stroke="black" stroke-width="1.02593" stroke-miterlimit="10"/>
<path d="M52.3256 72.693V58.2632V72.693Z" fill="black"/>
<path d="M52.3256 72.693V58.2632" stroke="black" stroke-width="2.05186" stroke-miterlimit="10"/>
</g>
<defs>
<clipPath id="clip0_2_208">
<rect width="105" height="107" fill="white"/>
</clipPath>
</defs>
</svg>
