<svg width="21" height="21" viewBox="0 0 21 21" fill="none" xmlns="http://www.w3.org/2000/svg">
<path d="M2.11053 14.8765C1.5211 11.9918 1.5211 9.01111 2.11053 6.12646C2.18797 5.83352 2.33761 5.56653 2.54472 5.35175C2.75184 5.13696 3.0093 4.98178 3.29178 4.90146C7.81719 4.12399 12.4351 4.12399 16.9605 4.90146C17.243 4.98178 17.5005 5.13696 17.7076 5.35175C17.9147 5.56653 18.0643 5.83352 18.1418 6.12646C18.7312 9.01111 18.7312 11.9918 18.1418 14.8765C18.0643 15.1694 17.9147 15.4364 17.7076 15.6512C17.5005 15.866 17.243 16.0211 16.9605 16.1015C12.4351 16.8791 7.81717 16.8791 3.29178 16.1015C3.0093 16.0211 2.75184 15.866 2.54472 15.6512C2.33761 15.4364 2.18797 15.1694 2.11053 14.8765Z" stroke="white" stroke-width="1.0826" stroke-linecap="round" stroke-linejoin="round"/>
<path d="M8.43713 13.1367L12.6559 10.5117L8.43713 7.88672V13.1367Z" stroke="white" stroke-width="1.0826" stroke-linecap="round" stroke-linejoin="round"/>
</svg>
